<svg viewBox="0 0 996.353 448.421" width="996.353" height="448.421" xml:space="preserve" xmlns:xlink="http://www.w3.org/1999/xlink" xmlns="http://www.w3.org/2000/svg"><defs><linearGradient id="b" x1="0" y1="0" x2="1" y2="1" gradientUnits="objectBoundingBox" spreadMethod="pad"><stop offset="0%" stop-color="#eaddf7"/><stop offset=".202" stop-color="#c5a9ee"/><stop offset="45%" stop-color="#9d76d4"/><stop offset="80%" stop-color="#7b42d6"/><stop offset="100%" stop-color="#4d3285"/></linearGradient><linearGradient id="c" x1="0" y1="0" x2="0" y2="1"><stop offset="0%" stop-color="#c5a9ee"/><stop offset="100%" stop-color="#9d76d4"/></linearGradient><linearGradient id="a" x1="0" y1="0" x2="1" y2="1"><stop offset="0%" stop-color="#7353b3"/><stop offset="100%" stop-color="#4d3285"/></linearGradient><linearGradient id="l" x1="482.991" y1="22.361" x2="482.991" y2="156.525" gradientTransform="matrix(.33541 0 0 2.41495 -58.933 -1.579)" gradientUnits="userSpaceOnUse"><stop offset="0%" stop-color="#55398c"/><stop offset="100%" stop-color="#3b206b"/></linearGradient><linearGradient id="f" x1="0" y1="0" x2="1" y2="1" gradientUnits="objectBoundingBox" spreadMethod="pad" xlink:href="#a"><stop offset="0%" stop-color="#eaddf7"/><stop offset="25%" stop-color="#c5a9ee"/><stop offset="45%" stop-color="#9d76d4"/><stop offset="50%" stop-color="#ff79c6"/><stop offset="80%" stop-color="#7b42d6"/><stop offset="100%" stop-color="#4d3285"/></linearGradient><linearGradient xlink:href="#b" id="g" x1="437.514" y1="-445.72" x2="354.326" y2="345.76" gradientUnits="userSpaceOnUse"/><linearGradient id="d" x1="0" y1="0" x2="0" y2="1"><stop offset="0" stop-color="#9d76d4" style="stop-color:#9d76d4;stop-opacity:.28999999"/><stop offset="1" stop-color="#c5a9ee" style="stop-color:#c5a9ee;stop-opacity:.28999999"/></linearGradient><linearGradient id="k" x1="203.961" y1="82.369" x2="356.931" y2="235.339" gradientTransform="scale(.58835 1.69967)" gradientUnits="userSpaceOnUse"><stop offset="0%" stop-color="#f4ebff"/><stop offset="100%" stop-color="#d6c0f5"/></linearGradient><linearGradient id="h" x1="482.991" y1="22.361" x2="482.991" y2="156.525" gradientTransform="scale(.37268 2.68328)" gradientUnits="userSpaceOnUse"><stop offset="0" stop-color="#55398c" style="stop-color:#55398c;stop-opacity:.08297631"/><stop offset="100%" stop-color="#3b206b"/></linearGradient><linearGradient xlink:href="#c" id="n" x1="183.347" y1="94.742" x2="183.347" y2="105.967" gradientTransform="matrix(.03547 0 0 .19708 35.512 137.016)" gradientUnits="userSpaceOnUse"/><linearGradient xlink:href="#c" id="m" x1="128.996" y1="167.447" x2="128.996" y2="248.069" gradientTransform="scale(.62017 1.61245)" gradientUnits="userSpaceOnUse"/><linearGradient xlink:href="#a" id="j" x1="122.202" y1="91.652" x2="213.854" y2="183.303" gradientTransform="scale(.65465 1.52753)" gradientUnits="userSpaceOnUse"/><linearGradient xlink:href="#a" id="i" x1="97.84" y1="27.596" x2="217.423" y2="147.179" gradientTransform="scale(.91987 1.08711)" gradientUnits="userSpaceOnUse"/><linearGradient xlink:href="#d" id="o" gradientUnits="userSpaceOnUse" gradientTransform="matrix(.03547 0 0 .19708 35.509 136.996)" x1="183.347" y1="105.967" x2="183.347" y2="94.742"/><linearGradient xlink:href="#d" id="p" gradientUnits="userSpaceOnUse" gradientTransform="matrix(.03547 0 0 .19708 35.446 136.977)" x1="183.347" y1="105.967" x2="183.347" y2="94.742"/></defs><g font-family="'Segoe UI', Ubuntu, sans-serif"><text font-size="140" font-weight="900" letter-spacing="5" fill="url(#f)" stroke="#3b206b" stroke-width="4" style="fill:url(#g);fill-opacity:1;stroke-width:0;stroke-linejoin:miter;stroke-dasharray:none;stroke-dashoffset:0;paint-order:stroke fill markers" transform="translate(181.067 263.421)">AMETHYST</text><text x="15" y="80" font-size="60" font-weight="700" letter-spacing="18" fill="#6272a4" transform="translate(181.067 263.421)">MINER</text></g><g style="display:inline"><path fill="#9d76d4" d="m113.09 376.544-46.424-17.982-46.425-116.898 9.283-116.91 46.414-98.917 55.718 26.972 27.86 71.945v179.854z"/><path fill="url(#f)" style="fill:url(#h)" d="m230 340-50 80 10-100 20-180-10-80 30 80z" transform="matrix(.9285 0 0 .89927 -54.043 -1.145)"/><path fill="url(#a)" transform="matrix(.9285 0 0 .89927 -54.043 -1.145)" style="fill:url(#i)" d="m140 30 60 30-60 100-50-20Z"/><path d="M47.218 139.525q3.344 5.017 0 10.87l-4.181-1.673z" fill="#8864c7" opacity=".6" style="stroke-width:.083615" transform="matrix(11.10374 0 0 10.75424 -448.359 -1474.648)"/><path fill="url(#a)" transform="matrix(.9285 0 0 .89927 -54.043 -1.145)" style="fill:url(#j)" d="m90 140 50 20-20 120-40-10z"/><path d="M43.037 148.722q4.18 5.017-.836 10.87l3.344.837z" fill="#6646a3" style="stroke-width:.083615" transform="matrix(11.10374 0 0 10.75424 -448.359 -1474.648)"/><path fill="url(#k)" style="fill:url(#k)" d="m140 160 70-20-20 180-60 80-10-120z" transform="matrix(.9285 0 0 .89927 -54.043 -1.145)"/><path d="M47.218 150.395c3.344 3.344 5.017 10.034-.836 20.067l5.016-6.689 1.673-15.05z" fill="#eaddf7" style="stroke-width:.083615" transform="matrix(11.10374 0 0 10.75424 -448.359 -1474.648)"/><path d="M47.218 150.395q1.672 6.689-1.673 10.034z" fill="#c3a8eb" style="stroke-width:.083615" transform="matrix(11.10374 0 0 10.75424 -448.359 -1474.648)"/><path fill="url(#l)" transform="matrix(.9285 0 0 .89927 -54.043 -1.145)" style="fill:url(#m)" d="M130 400 80 270l40 10Z"/><path d="M42.2 159.592q3.345 4.181 4.182 10.87l-.837-10.033z" fill="#b08cdb" style="stroke-width:.083615" transform="matrix(11.10374 0 0 10.75424 -448.359 -1474.648)"/><path fill="#b596de" d="m113.09 376.544-46.424-17.982 55.708-71.945z"/><path fill="#f8f2ff" opacity=".8" d="m85.231 365.757-18.565-7.195 27.848-71.945z"/><path d="M51.398 163.773q-2.508 5.017-.836 8.362z" fill="url(#l)" style="fill:url(#n);stroke-width:.083615" transform="matrix(11.10374 0 0 10.75424 -448.359 -1474.648)"/><path style="fill:url(#o);stroke-width:.083615" d="M51.396 163.752q-2.509 5.017-.836 8.362zm-3.345 7.358-1.672-.668 2.508-6.69zm2.509 1.004-4.181-1.672 5.017-6.69zm-8.362-12.542q3.345 4.18 4.18 10.87l-.835-10.034zm4.18 10.87-4.18-10.87 3.345.836zm.837-20.068q1.672 6.69-1.672 10.034zm0 0c3.345 3.345 5.017 10.034-.836 20.068l5.017-6.69 1.672-15.05zm-1.672 10.034 1.672-10.034 5.853-1.672-1.672 15.05-5.017 6.69zm-2.509-11.706q4.181 5.017-.836 10.87l3.345.836zm2.509 11.706-3.345-.836.836-10.87 4.181 1.672zm1.672-20.904q3.345 5.017 0 10.87l-4.18-1.672zm0 10.87-4.18-1.672 4.18-9.198 5.017 2.508zm7.525 15.05-4.18 6.69.836-8.362 1.672-15.05-.836-6.69 2.508 6.69zm-12.542-5.852.836-10.87 4.181-9.198 5.017 2.508 2.508 6.69v16.723l-4.18 6.689-4.181-1.672z" transform="matrix(11.10374 0 0 10.75424 -448.359 -1474.648)"/><path style="display:inline;opacity:.5;mix-blend-mode:screen;fill:url(#p);stroke-width:.083615" d="M51.333 163.734q-2.508 5.017-.836 8.361zm-3.344 7.358-1.673-.669 2.509-6.69zm2.508 1.003-4.18-1.672 5.016-6.69zm-8.361-12.542q3.344 4.18 4.18 10.87l-.836-10.034Zm4.18 10.87-4.18-10.87 3.344.836zm.836-20.068q1.673 6.69-1.672 10.034zm0 0c3.345 3.345 5.017 10.034-.836 20.068l5.017-6.69 1.673-15.05zM45.48 160.39l1.672-10.034 5.854-1.672-1.673 15.05-5.017 6.69zm-2.508-11.706q4.18 5.017-.836 10.87l3.344.836zm2.508 11.706-3.344-.836.836-10.87 4.18 1.672zm1.672-20.903q3.345 5.016 0 10.87l-4.18-1.673zm0 10.87-4.18-1.673 4.18-9.197 5.017 2.508zm7.526 15.05-4.18 6.69.835-8.362 1.673-15.05-.837-6.69 2.509 6.69zm-12.542-5.853.836-10.87 4.18-9.197 5.017 2.508 2.509 6.69v16.722l-4.18 6.69-4.182-1.673z" transform="matrix(11.10374 0 0 10.75424 -448.359 -1474.648)"/></g><g style="stroke:#000;stroke-opacity:1"><path fill="#fff" style="stroke:#8b6ebd;stroke-opacity:1" transform="matrix(-.9851 1.22246 1.22246 .9851 164.023 223.142)" d="M20 45 5 40l20-15 25-10 25 10 20 15-15 5-20-15h-6l-1 60h-6l-1-60h-6z"/></g><text xml:space="preserve" style="font-size:11px;line-height:1;font-family:Cantarell;-inkscape-font-specification:Cantarell;writing-mode:lr-tb;direction:ltr;fill:#9970d4;fill-opacity:1;fill-rule:evenodd;stroke:#3b206b;stroke-width:.1;stroke-linecap:round;stroke-linejoin:miter;stroke-dasharray:none;stroke-dashoffset:0;stroke-opacity:1;paint-order:markers fill stroke" x="-294.698" y="1093.954"><tspan x="-294.698" y="1093.954">m</tspan></text></svg>
